<svg width="20" height="20" viewBox="0 0 20 20" fill="none" xmlns="http://www.w3.org/2000/svg">
<path d="M12.227 8.11531V8.36531H12.477H13.0585C13.5601 8.36531 13.9714 8.77666 13.9714 9.27827V15.0931C13.9714 15.5947 13.5601 16.0061 13.0585 16.0061H6.08065C5.57903 16.0061 5.16768 15.5947 5.16768 15.0931V9.27827C5.16768 8.77666 5.57903 8.36531 6.08065 8.36531H6.66213H6.91213V8.11531V6.95234C6.91213 5.49133 8.10854 4.29492 9.56955 4.29492C11.0306 4.29492 12.227 5.49133 12.227 6.95234V8.11531ZM11.3722 8.36531H11.6222V8.11531V6.95234C11.6222 5.82563 10.6963 4.89968 9.56955 4.89968C8.443 4.89968 7.51689 5.82562 7.51689 6.95234V8.11531V8.36531H7.76689H11.3722ZM8.15658 12.2438C8.15658 13.0216 8.79179 13.6568 9.56955 13.6568C10.3473 13.6568 10.9825 13.0216 10.9825 12.2438C10.9825 11.4661 10.3473 10.8309 9.56955 10.8309C8.79179 10.8309 8.15658 11.4661 8.15658 12.2438Z" stroke="#6945FF" stroke-width="0.5"/>
</svg>
